. 
  
http://www.torrenting.com/        :     Greatest Movie Tracker on The Net!!!
 
http://www.Torrenting.com          :     Once & For all ;)


               www . Torrenting . Com 

(((((((((((((= Enjoy No RAR releases =))))))))))))))))))))


...................................NFO:....................................

.[img]http://img846.imageshack.us/img846/5536/thewaypostermartinsheen.jpg[/img]

[color=blue][size=5][b]The Way 2010 DVDRip XVID AC3-5.1 HQ Hive-CM8[/b][/size][/color]

There is a difference between "the life we live and the life we choose."

[b]Thx Hive

CM8 Doing It Right The First Time :D

Source DVD-9

Video: 720x400 @bitrate 1800 2pass
Audio: English AC3 5.1 @448
Sample: yes included

Encode: added sharpness,brightness,rgb,denoise[/b]


[url]http://www.imdb.com/title/tt1441912/[/url]

[url]http://theway-themovie.com/blog/category/film-clips/[/url]


General
Complete name                    : The.Way.2010.DVDRip.XVID.AC3.HQ.Hive-CM8.avi
Format                           : AVI
Format/Info                      : Audio Video Interleave
File size                        : 1.93 GiB
Duration                         : 2h 2mn
Overall bit rate                 : 2 251 Kbps
Writing application              : Nandub v1.0rc2
Writing library                  : Nandub build 1853/release

Video
ID                               : 0
Format                           : MPEG-4 Visual
Format profile                   : Advanced Simple@L5
Format settings, BVOP            : Yes
Format settings, QPel            : Yes
Format settings, GMC             : No warppoints
Format settings, Matrix          : Default (H.263)
Muxing mode                      : Packed bitstream
Codec ID                         : XVID
Codec ID/Hint                    : XviD
Duration                         : 2h 2mn
Bit rate                         : 1 794 Kbps
Width                            : 720 pixels
Height                           : 400 pixels
Display aspect ratio             : 16:9
Frame rate                       : 25.000 fps
Color space                      : YUV
Chroma subsampling               : 4:2:0
Bit depth                        : 8 bits
Scan type                        : Progressive
Bits/(Pixel*Frame)               : 0.249
Stream size                      : 1.54 GiB (80%)
Writing library                  : XviD 1.2.1 (UTC 2008-12-04)

Audio
ID                               : 1
Format                           : AC-3
Format/Info                      : Audio Coding 3
Mode extension                   : CM (complete main)
Codec ID                         : 2000
Duration                         : 2h 2mn
Bit rate mode                    : Constant
Bit rate                         : 448 Kbps
Channel(s)                       : 6 channels
Channel positions                : Front: L C R, Side: L R, LFE
Sampling rate                    : 48.0 KHz
Bit depth                        : 16 bits
Stream size                      : 394 MiB (20%)
Alignment                        : Split accross interleaves
Interleave, duration             : 40 ms (1.00 video frame)
Interleave, preload duration     : 500 ms




Martin Sheen as Thomas Avery
Deborah Kara Unger as Sarah
James Nesbitt as Jack
Yorick van Wageningen as Joost
Emilio Estevez as Daniel Avery



Martin Sheen plays Tom, an American doctor and widower who travels to St. Jean Pied de Port, 
France to recover the body of his estranged adult son (played by Emilio), who was killed 
accidentally during a storm while walking The Camino de Santiago,a Christian pilgrimage 
route to the Cathedral of Santiago de Compostela in Galicia, Spain, also known as The Way of St. James.  
Looking for insights into his estranged child's life, he decides to complete the 500-mile mountain trek to Spain, 
taking his son's cremated remains with him and spreading them along the historical trek 
from the Pyrenees in southern France, to Santiago de Compostela in northwest of Spain.



[img]http://img62.imageshack.us/img62/8210/wwaa.png[/img]
[img]http://img860.imageshack.us/img860/4908/wwawaa.png[/img]
[img]http://img251.imageshack.us/img251/2964/wwawwawaawaa.png[/img]
[img]http://img848.imageshack.us/img848/2973/wwwaawaa.png[/img]
[img]http://img820.imageshack.us/img820/1760/12609131.png[/img]
[img]http://img713.imageshack.us/img713/8118/wwawwaawaa.png[/img]





Greetz

iNK,LUSi,,MAGNET,CLASSiFiED,THC,LEGi0N,T0XiC,IMAGiNE,ViSiON,WBZ,FLAWL3SS,NOVA
Vik,Rapeseed,D2U,SAFC,goldadvance,MEMORY100,KaN1vE,Unevano,Pinnz,Wayne,Mr Hive
and all P2P groups 
Great Work Guys :D

CM8@hushmail.com